#!OML:ASF F:\VICON\USERDATA\INSTALL\rory3\rory3.ASF
:FULLY-SPECIFIED
:DEGREES
418
root -8.55306 16.1935 14.9762 8.49372 -3.41019 4.64464
lowerback 27.1706 -0.383916 0.759853
upperback 5.9764 -0.044948 2.45142
thorax -8.37407 -0.0225918 2.30511
lowerneck -17.9609 -1.81969 -4.16974
upperneck 12.1408 -1.44726 0.238775
head 6.672 -0.876071 0.593547
rclavicle 2.46493e-014 -2.38542e-014
rhumerus -28.9174 -30.7691 -55.7319
rradius 75.1188
rwrist 28.1848
rhand -29.7285 9.12808
rfingers 7.12502
rthumb -3.05526 -20.8298
lclavicle 2.46493e-014 -2.38542e-014
lhumerus -36.8494 22.1718 62.9294
lradius 63.9788
lwrist -9.16042
lhand -28.7855 46.3885
lfingers 7.12502
lthumb -2.14457 76.3575
rfemur -42.5451 1.30115 17.9382
rtibia 72.8201
rfoot -21.4268 10.2259
rtoes 4.29071
lfemur -60.5473 -1.64453 -10.9313
ltibia 59.714
lfoot 3.76042 -9.29223
ltoes -23.9041
419
root -8.51398 16.19 15.0341 8.28793 -4.0261 4.58412
lowerback 27.0731 -0.407642 1.08937
upperback 6.07407 -0.00077912 2.38616
thorax -8.2172 -0.010941 2.02444
lowerneck -17.8404 -1.6961 -4.0611
upperneck 12.1289 -1.27836 0.0196866
head 6.64253 -0.809113 0.524195
rclavicle 1.98785e-014 1.59028e-015
rhumerus -29.1442 -30.8409 -55.6766
rradius 75.266
rwrist 28.3728
rhand -30.65 6.7614
rfingers 7.12502
rthumb -3.94513 -23.1818
lclavicle 1.98785e-014 1.59028e-015
lhumerus -36.7286 21.739 63.1794
lradius 64.1592
lwrist -9.37732
lhand -28.2485 47.8002
lfingers 7.12502
lthumb -1.62594 77.7737
rfemur -42.2561 1.58139 17.7747
rtibia 72.9325
rfoot -21.5238 10.4941
rtoes 3.46191
lfemur -60.3465 -1.60697 -10.4984
ltibia 58.6848
lfoot 4.18568 -9.4036
ltoes -24.1143
420
root -8.48066 16.1839 15.0804 8.14895 -4.71474 4.6291
lowerback 27.075 -0.331835 1.1182
upperback 6.12151 0.0976048 2.37435
thorax -8.16756 0.0331001 1.96154
lowerneck -17.9039 -1.59731 -4.01407
upperneck 12.3054 -1.11544 -0.204136
head 6.70592 -0.750871 0.460989
rclavicle 2.3059e-014 -3.18055e-015
rhumerus -29.1046 -31.1009 -55.6506
rradius 75.1716
rwrist 28.5935
rhand -34.5119 -9.53109
rfingers 7.12502
rthumb -7.67363 -39.3719
lclavicle 2.3059e-014 -3.18055e-015
lhumerus -36.538 21.506 63.5034
lradius 64.0534
lwrist -9.87502
lhand -27.9046 48.4157
lfingers 7.12502
lthumb -1.29382 78.3915
rfemur -42.199 2.00381 17.5194
rtibia 73.0768
rfoot -21.1216 10.9252
rtoes 5.1846
lfemur -60.2339 -1.42908 -10.1836
ltibia 57.6206
lfoot 4.63559 -9.69193
ltoes -24.4967
421
root -8.44074 16.1787 15.135 8.00217 -5.3148 4.60626
lowerback 27.2525 -0.369759 1.18128
upperback 6.0447 0.0804536 2.47734
thorax -8.34195 0.0236939 2.04962
lowerneck -17.8169 -1.46639 -4.26037
upperneck 12.4846 -0.862656 -0.303372
head 6.74648 -0.65279 0.496096
rclavicle 2.22639e-014 2.06736e-014
rhumerus -29.161 -31.0994 -55.4422
rradius 75.021
rwrist 28.7693
rhand -34.1195 -9.51784
rfingers 7.12502
rthumb -7.2949 -39.3721
lclavicle 2.22639e-014 2.06736e-014
lhumerus -36.7826 21.5267 63.6688
lradius 63.842
lwrist -10.2169
lhand -27.6909 47.894
lfingers 7.12502
lthumb -1.08741 77.871
rfemur -42.0354 2.28915 17.3382
rtibia 73.2112
rfoot -20.1582 11.8128
rtoes 11.1741
lfemur -60.0914 -1.33475 -9.85617
ltibia 56.4859
lfoot 5.30571 -9.94785
ltoes -25.4729
422
root -8.39366 16.1838 15.1981 7.93693 -5.89363 4.61887
lowerback 27.314 -0.49242 1.16953
upperback 5.9015 -0.0657729 2.58003
thorax -8.52946 -0.0444138 2.22385
lowerneck -17.6896 -1.18422 -4.45268
upperneck 12.6882 -0.423107 -0.387899
head 6.78384 -0.461739 0.54784
rclavicle 7.95139e-016 4.77083e-015
rhumerus -29.2356 -30.5628 -55.3912
rradius 75.0114
rwrist 28.5114
rhand -33.8963 -10.2351
rfingers 7.12502
rthumb -7.07944 -40.0967
lclavicle 7.95139e-016 4.77083e-015
lhumerus -37.2817 21.5929 63.6798
lradius 63.6546
lwrist -10.3804
lhand -27.7221 48.7005
lfingers 7.12502
lthumb -1.11753 78.6774
rfemur -41.8776 2.40063 17.0619
rtibia 73.3302
rfoot -20.7673 11.8042
rtoes 8.27153
lfemur -59.9443 -1.36706 -9.52691
ltibia 55.3148
lfoot 6.21856 -10.0185
ltoes -26.0945
423
root -8.35073 16.1868 15.2524 7.80588 -6.57011 4.83389
lowerback 27.3451 -0.493068 0.90184
upperback 5.88281 -0.137056 2.63126
thorax -8.56306 -0.0730976 2.46099
lowerneck -17.8226 -0.959816 -4.45641
upperneck 12.9939 -0.054714 -0.694345
head 6.89918 -0.318836 0.488566
rclavicle 2.3059e-014 3.97569e-014
rhumerus -29.2055 -30.175 -55.4173
rradius 75.0185
rwrist 28.0811
rhand -33.7813 -11.3211
rfingers 7.12502
rthumb -6.96849 -41.1864
lclavicle 2.3059e-014 3.97569e-014
lhumerus -37.4074 21.5606 63.8654
lradius 63.4748
lwrist -10.4453
lhand -28.44 49.2333
lfingers 7.12502
lthumb -1.81087 79.2054
rfemur -41.7875 2.58326 16.601
rtibia 73.4686
rfoot -20.0324 12.4997
rtoes 11.5328
lfemur -59.6631 -1.40329 -9.3204
ltibia 54.1398
lfoot 7.20958 -10.0036
ltoes -24.8928
424
root -8.31258 16.1738 15.3072 7.65878 -7.26916 4.89846
lowerback 27.405 -0.474347 0.882751
upperback 5.8577 -0.123701 2.59322
thorax -8.62181 -0.0677664 2.4268
lowerneck -17.625 -0.766847 -4.28841
upperneck 13.0055 0.195279 -0.944834
head 6.86598 -0.212885 0.407757
rclavicle -3.49861e-014 7.95139e-015
rhumerus -29.3512 -30.0659 -55.4593
rradius 74.9256
rwrist 27.8165
rhand -33.9509 -11.5304
rfingers 7.12502
rthumb -7.13217 -41.3902
lclavicle -3.49861e-014 7.95139e-015
lhumerus -37.4655 21.2393 63.9276
lradius 63.3996
lwrist -10.4122
lhand -29.6316 46.6202
lfingers 7.12502
lthumb -2.96172 76.5794
rfemur -41.6996 2.99739 16.3561
rtibia 73.6253
rfoot -21.5292 11.4304
rtoes 1.70749
lfemur -59.3727 -1.258 -9.02162
ltibia 53.0223
lfoot 7.85074 -9.92749
ltoes -21.298
425
root -8.26705 16.1646 15.3688 7.54656 -7.86783 4.9128
lowerback 27.3834 -0.517775 1.06122
upperback 5.83854 -0.13401 2.58321
thorax -8.63265 -0.0776943 2.31611
lowerneck -17.3714 -0.586936 -4.16048
upperneck 12.9203 0.440987 -1.24512
head 6.79338 -0.113118 0.316515
rclavicle 2.22639e-014 -2.06736e-014
rhumerus -29.5528 -30.0404 -55.3996
rradius 75.018
rwrist 27.6081
rhand -33.8635 -12.0331
rfingers 7.12502
rthumb -7.04782 -41.8958
lclavicle 2.22639e-014 -2.06736e-014
lhumerus -37.555 20.9609 64.0511
lradius 63.4946
lwrist -10.3427
lhand -29.8223 44.4604
lfingers 7.12502
lthumb -3.14587 74.4169
rfemur -41.5072 3.22847 16.1324
rtibia 73.7543
rfoot -20.0599 12.7325
rtoes 11.6584
lfemur -59.1642 -1.1645 -8.76525
ltibia 51.9669
lfoot 8.49135 -10.0166
ltoes -21.3188
426
root -8.21488 16.1711 15.429 7.33244 -8.51895 5.18598
lowerback 27.3542 -0.51305 1.07927
upperback 5.94645 -0.140932 2.48272
thorax -8.4966 -0.0844918 2.19329
lowerneck -17.4581 -0.455556 -4.00066
upperneck 12.98 0.630485 -1.51608
head 6.82659 -0.0403677 0.223088
rclavicle 3.97569e-015 -4.13472e-014
rhumerus -29.5486 -30.1758 -55.4838
rradius 75.1988
rwrist 27.409
rhand -33.7744 -12.7233
rfingers 7.12502
rthumb -6.96181 -42.5888
lclavicle 3.97569e-015 -4.13472e-014
lhumerus -37.2837 20.8125 64.2971
lradius 63.4186
lwrist -10.3631
lhand -29.688 44.509
lfingers 7.12502
lthumb -3.01612 74.4674
rfemur -41.2293 3.3695 15.5551
rtibia 73.8677
rfoot -21.6569 12.0813
rtoes 2.59566
lfemur -58.9009 -1.24665 -8.71908
ltibia 50.9019
lfoot 9.89453 -9.57867
ltoes -19.422
427
root -8.16748 16.1556 15.4871 7.14701 -9.19415 5.452
lowerback 27.4703 -0.478692 0.934972
upperback 5.99569 -0.14381 2.43522
thorax -8.49882 -0.0848819 2.22599
lowerneck -17.7264 -0.343991 -3.99854
upperneck 13.1676 0.825882 -1.66702
head 6.93176 0.0340724 0.194757
rclavicle 1.03368e-014 -3.33958e-014
rhumerus -29.5783 -30.0159 -55.5445
rradius 75.4518
rwrist 27.399
rhand -33.7391 -13.009
rfingers 7.12502
rthumb -6.92769 -42.8756
lclavicle 1.03368e-014 -3.33958e-014
lhumerus -36.9861 20.7178 64.535
lradius 63.025
lwrist -10.2576
lhand -30.3273 44.21
lfingers 7.12502
lthumb -3.63357 74.1588
rfemur -41.1631 3.67645 14.9869
rtibia 74.0838
rfoot -19.8212 13.8774
rtoes 16.4607
lfemur -58.483 -1.15401 -8.76603
ltibia 49.8842
lfoot 10.721 -9.61511
ltoes -20.1735
428
root -8.123 16.1373 15.5429 7.11709 -9.78784 5.38828
lowerback 27.6062 -0.476351 1.07371
upperback 5.96639 -0.0954713 2.49253
thorax -8.60125 -0.0654531 2.19678
lowerneck -17.8998 -0.262055 -3.96163
upperneck 13.3275 0.962813 -1.79253
head 7.01287 0.0853253 0.162986
rclavicle -7.95139e-015 -4.77083e-015
rhumerus -29.7514 -29.9097 -55.48
rradius 75.6831
rwrist 27.5497
rhand -33.9041 -13.3291
rfingers 7.12502
rthumb -7.087 -43.1904
lclavicle -7.95139e-015 -4.77083e-015
lhumerus -36.7582 20.487 64.741
lradius 62.729
lwrist -10.2554
lhand -30.4717 44.6514
lfingers 7.12502
lthumb -3.77298 74.5977
rfemur -41.2181 4.00827 14.835
rtibia 74.2978
rfoot -19.7171 13.9837
rtoes 15.887
lfemur -58.3212 -1.07676 -8.34751
ltibia 48.7868
lfoot 11.6475 -9.82227
ltoes -21.1025
429
root -8.07585 16.1291 15.6013 7.00897 -10.4081 5.42065
lowerback 27.7912 -0.524341 1.19103
upperback 5.94911 -0.124033 2.47219
thorax -8.71229 -0.0825308 2.1199
lowerneck -18.0064 -0.125802 -3.96135
upperneck 13.4709 1.1732 -1.88484
head 7.07659 0.173476 0.1563
rclavicle 1.43125e-014 2.70347e-014
rhumerus -29.6882 -30.0524 -55.6313
rradius 75.765
rwrist 28.0774
rhand -33.95 -13.6858
rfingers 7.12502
rthumb -7.13126 -43.5457
lclavicle 1.43125e-014 2.70347e-014
lhumerus -36.7303 20.3101 64.7872
lradius 62.7565
lwrist -10.1658
lhand -29.699 45.2685
lfingers 7.12502
lthumb -3.0268 75.2268
rfemur -41.1556 4.23959 14.586
rtibia 74.5131
rfoot -19.9199 13.9887
rtoes 14.4324
lfemur -58.023 -1.07155 -8.04195
ltibia 47.6853
lfoot 12.564 -10.149
ltoes -22.6665
430
root -8.02753 16.1282 15.6646 6.76109 -11.1861 5.71322
lowerback 27.92 -0.46316 1.02479
upperback 6.01445 -0.105288 2.37922
thorax -8.70312 -0.0729283 2.10675
lowerneck -17.8356 -0.0133111 -4.06062
upperneck 13.3328 1.32902 -1.83881
head 7.00021 0.25157 0.204279
rclavicle -7.95139e-016 3.02153e-014
rhumerus -29.5233 -30.255 -55.7902
rradius 75.6626
rwrist 28.1802
rhand -34.1289 -13.0828
rfingers 7.12502
rthumb -7.30403 -42.9368
lclavicle -7.95139e-016 3.02153e-014
lhumerus -36.6705 20.2014 64.9321
lradius 62.7778
lwrist -10.1257
lhand -29.6882 44.8904
lfingers 7.12502
lthumb -3.01639 74.8488
rfemur -40.9717 4.56521 13.9935
rtibia 74.736
rfoot -20.3118 14.1107
rtoes 12.9765
lfemur -57.493 -1.08307 -8.00038
ltibia 46.5872
lfoot 13.769 -10.3396
ltoes -21.7754
431
root -7.97849 16.1139 15.7274 6.65761 -11.8336 6.0035
lowerback 27.8457 -0.437657 0.905868
upperback 6.03536 -0.11711 2.32787
thorax -8.6421 -0.0779348 2.12052
lowerneck -17.7274 0.0600722 -4.18567
upperneck 13.4148 1.45399 -1.82514
head 7.00685 0.304934 0.242636
rclavicle 5.56597e-015 4.29375e-014
rhumerus -29.6626 -30.3752 -55.6859
rradius 75.5132
rwrist 28.151
rhand -34.3828 -11.4694
rfingers 7.12502
rthumb -7.54911 -41.3147
lclavicle 5.56597e-015 4.29375e-014
lhumerus -36.6052 20.0574 65.0993
lradius 62.7676
lwrist -10.262
lhand -30.2391 44.2368
lfingers 7.12502
lthumb -3.54834 74.187
rfemur -40.9122 4.79406 13.4026
rtibia 74.9956
rfoot -20.8277 13.9095
rtoes 9.98306
lfemur -57.1859 -1.1141 -7.96568
ltibia 45.5782
lfoot 14.9026 -11.0183
ltoes -20.1481
432
root -7.92368 16.0957 15.7918 6.6325 -12.3746 6.18366
lowerback 27.8447 -0.475925 0.941125
upperback 5.96863 -0.155378 2.33849
thorax -8.71581 -0.0968948 2.12645
lowerneck -17.3634 0.219369 -4.14278
upperneck 13.2352 1.6788 -2.10009
head 6.88831 0.396493 0.169634
rclavicle -1.51076e-014 -2.38542e-014
rhumerus -29.7484 -30.5292 -55.5559
rradius 75.3233
rwrist 28.382
rhand -34.224 -11.1378
rfingers 7.12502
rthumb -7.39582 -40.9885
lclavicle -1.51076e-014 -2.38542e-014
lhumerus -36.7088 19.8778 65.3101
lradius 63.015
lwrist -10.1346
lhand -30.6028 44.3202
lfingers 7.12502
lthumb -3.8996 74.2642
rfemur -40.9278 4.97331 12.8674
rtibia 75.247
rfoot -21.0951 13.9836
rtoes 7.84626
lfemur -56.9272 -1.15711 -7.87165
ltibia 44.6405
lfoot 15.6661 -11.7353
ltoes -20.2865
